<?xml version="1.0" encoding="UTF-8"?>
<svg version="1.1" xmlns="http://www.w3.org/2000/svg" width="256" height="236">
<path d="M0 0 C1.31299072 0.00757324 2.62598145 0.01514648 3.97875977 0.02294922 C13.92802489 0.19140369 22.78448925 1.22305224 32.1875 4.4375 C32.81575684 4.64648926 33.44401367 4.85547852 34.09130859 5.07080078 C47.73719404 9.70269935 61.83653773 17.28137937 72.1875 27.4375 C72.1875 28.0975 72.1875 28.7575 72.1875 29.4375 C72.75984375 29.66824219 73.3321875 29.89898437 73.921875 30.13671875 C88.95272028 38.76649716 98.05368543 63.39413441 102.42578125 79.1484375 C106.57578829 97.06795508 106.16149994 118.97932006 100.1875 136.4375 C99.97319336 137.0763916 99.75888672 137.7152832 99.53808594 138.37353516 C90.82018339 163.8229581 71.93655286 185.80547348 47.80126953 197.78051758 C23.37036309 209.36560189 -3.76873105 212.51044976 -29.8125 204.4375 C-30.49602539 204.22851074 -31.17955078 204.01952148 -31.88378906 203.80419922 C-58.93487614 195.25062242 -79.80366086 176.39115905 -93.3125 151.6953125 C-105.45607316 126.72509019 -106.74189915 97.68237416 -99.12890625 71.19140625 C-89.3248068 43.23372205 -68.95683404 21.77904022 -42.8125 8.4375 C-29.25324837 2.1831175 -14.82002978 -0.12068272 0 0 Z " fill="#FDAC0C" transform="translate(128.8125,20.5625)"/>
<path d="M0 0 C16.78646931 12.20570566 27.9031442 33.02923023 31.5859375 53.2109375 C33.43682171 70.14827414 32.90756283 88.25162561 26 104 C25.29230469 105.63388672 25.29230469 105.63388672 24.5703125 107.30078125 C12.90247082 132.39501492 -7.54565005 147.4774122 -33 157 C-33.95003906 157.37382812 -34.90007812 157.74765625 -35.87890625 158.1328125 C-52.68251204 162.80164915 -71.97810133 161.39862971 -88 155 C-89.30703316 154.53336594 -90.61565559 154.07116093 -91.92578125 153.61328125 C-104.63977224 149.0389101 -114.34500653 141.33208399 -124 132 C-124.68835938 131.33742187 -125.37671875 130.67484375 -126.0859375 129.9921875 C-142.80241371 112.61498101 -148.60901682 89.36247637 -148.35546875 65.984375 C-147.98801054 54.72806011 -146.19615498 38.88461664 -138.3125 30.125 C-137.6628125 29.568125 -137.6628125 29.568125 -137 29 C-136.34 29.33 -135.68 29.66 -135 30 C-135 30.66 -135 31.32 -135 32 C-133.02 32 -131.04 32 -129 32 C-129.49175193 35.85205678 -130.11739632 39.54549101 -131.0625 43.3125 C-133.79327957 55.44701676 -131.4465597 68.90854649 -126 80 C-117.91589482 92.54961089 -106.97316856 102.66312243 -92 106 C-88.6234335 106.25451668 -88.6234335 106.25451668 -86 106 C-85.6656228 103.634144 -85.6656228 103.634144 -86 101 C-87.7233779 99.17835779 -87.7233779 99.17835779 -90 97.8125 C-91.36161737 96.91657468 -92.70303394 95.98719961 -94 95 C-94 94.34 -94 93.68 -94 93 C-89.71 93 -85.42 93 -81 93 C-80.5359375 90.89625 -80.5359375 90.89625 -80.0625 88.75 C-79.41650906 85.82150775 -78.73989213 82.90624297 -78 80 C-77.34 80 -76.68 80 -76 80 C-74.68 83.96 -73.36 87.92 -72 92 C-67.71 92.33 -63.42 92.66 -59 93 C-63.63366337 97.76237624 -63.63366337 97.76237624 -66.3125 99.5 C-66.869375 99.995 -67.42625 100.49 -68 101 C-68.14072366 103.56261135 -68.14072366 103.56261135 -68 106 C-59.93852898 103.76993671 -52.02113193 101.07441629 -46 95 C-46 93.68 -46 92.36 -46 91 C-45.13375 90.835 -44.2675 90.67 -43.375 90.5 C-36.63432281 87.50414347 -33.53046223 80.74770231 -30.8125 74.16796875 C-29.05502052 69.47854033 -27.43441964 65.04309158 -28 60 C-29.56864622 58.07117019 -29.56864622 58.07117019 -31.75 56.625 C-32.44609375 56.10164063 -33.1421875 55.57828125 -33.859375 55.0390625 C-35.91620092 53.80952903 -35.91620092 53.80952903 -38.0625 54.20703125 C-40.98270201 55.40219457 -43.430079 57.18937384 -46 59 C-46.66 58.67 -47.32 58.34 -48 58 C-47.67 57.67 -47.34 57.34 -47 57 C-45.93824387 53.5787858 -45.45026962 50.55492315 -46 47 C-48.63266479 44.03891425 -51.67968886 42.11645564 -55 40 C-55 39.67 -55 39.34 -55 39 C-50.71 38.67 -46.42 38.34 -42 38 C-41.54625 36.576875 -41.0925 35.15375 -40.625 33.6875 C-39.66055791 30.6626589 -38.79068573 28.6860286 -37 26 C-36.3291288 27.6232687 -35.66342971 29.24867578 -35 30.875 C-34.62875 31.77992187 -34.2575 32.68484375 -33.875 33.6171875 C-33 36 -33 36 -33 38 C-28.38 38 -23.76 38 -19 38 C-19 38.66 -19 39.32 -19 40 C-19.804375 40.433125 -20.60875 40.86625 -21.4375 41.3125 C-24.14818913 42.73038556 -24.14818913 42.73038556 -24.78125 45.171875 C-25.06340173 48.81969386 -24.15086537 51.44520303 -23.0625 54.9375 C-20.13721527 65.15884666 -20.62127001 75.46547976 -21 86 C-14.61022435 79.98134217 -13.30988597 69.85786671 -12.90625 61.421875 C-13.32822692 46.01971745 -19.16724797 31.99973087 -30 21 C-32.62565357 19.25040343 -32.62565357 19.25040343 -35 18 C-32.91610422 11.74831267 -24.52853094 7.77787563 -18.78466797 4.88378906 C-16.52005758 3.83144824 -14.24169102 2.83739702 -11.9375 1.875 C-10.84888672 1.41432129 -10.84888672 1.41432129 -9.73828125 0.94433594 C-6.05004776 -0.51817987 -3.76326697 -1.32309858 0 0 Z " fill="#FD8201" transform="translate(187,55)"/>
<path d="M0 0 C1.31299072 0.00757324 2.62598145 0.01514648 3.97875977 0.02294922 C13.92802489 0.19140369 22.78448925 1.22305224 32.1875 4.4375 C32.81575684 4.64648926 33.44401367 4.85547852 34.09130859 5.07080078 C47.73719404 9.70269935 61.83653773 17.28137937 72.1875 27.4375 C72.1875 28.0975 72.1875 28.7575 72.1875 29.4375 C72.75984375 29.66824219 73.3321875 29.89898437 73.921875 30.13671875 C89.05933949 38.82771129 98.1013761 63.60467415 102.5234375 79.44140625 C103.1875 82.4375 103.1875 82.4375 103.1875 86.4375 C102.5275 86.4375 101.8675 86.4375 101.1875 86.4375 C100.95417969 85.35855469 100.72085938 84.27960938 100.48046875 83.16796875 C96.24084871 65.17494017 87.51312063 50.22000945 74.1875 37.4375 C73.35347656 36.61894531 72.51945313 35.80039062 71.66015625 34.95703125 C65.97410666 29.59435889 59.89868025 25.4122764 53.1875 21.4375 C52.506875 20.98632812 51.82625 20.53515625 51.125 20.0703125 C43.58554238 15.32870048 34.74367234 13.5524458 26.1875 11.4375 C25.49793213 11.24768555 24.80836426 11.05787109 24.09790039 10.86230469 C17.31171558 9.11917899 10.60347681 9.05498009 3.625 9.0625 C1.77068359 9.06056641 1.77068359 9.06056641 -0.12109375 9.05859375 C-8.50593849 9.15527435 -15.91918394 10.06220106 -23.90625 12.5625 C-26.8125 13.4375 -26.8125 13.4375 -30.8125 13.4375 C-30.3175 13.9325 -29.8225 14.4275 -29.3125 14.9375 C-27.20180942 18.45531763 -27.18780678 21.49454386 -27.8125 25.4375 C-29.29145254 30.12432143 -31.08454931 34.34557397 -33.8125 38.4375 C-33.8125 39.4275 -33.8125 40.4175 -33.8125 41.4375 C-33.008125 41.7675 -32.20375 42.0975 -31.375 42.4375 C-28.8125 44.4375 -28.8125 44.4375 -28.15234375 46.8984375 C-27.63822698 51.30684106 -27.41736334 54.4778824 -29.125 58.625 C-29.681875 59.223125 -30.23875 59.82125 -30.8125 60.4375 C-31.4725 60.4375 -32.1325 60.4375 -32.8125 60.4375 C-33.1425 61.4275 -33.4725 62.4175 -33.8125 63.4375 C-39.15799719 64.56286783 -46.74317925 65.97216037 -51.8125 63.4375 C-51.8125 62.4475 -51.8125 61.4575 -51.8125 60.4375 C-58.02478556 61.60831886 -58.02478556 61.60831886 -63.8125 64.0625 C-67.87057274 65.92245001 -71.42154811 66.30402561 -75.8125 65.4375 C-78.375 63.4375 -78.375 63.4375 -79.8125 60.4375 C-80.11364174 57.67618336 -80.0019194 55.23143611 -79.8125 52.4375 C-85.47716727 60.64634785 -89.09842258 68.27159383 -91.78515625 77.84765625 C-92.5710197 80.5936962 -93.42985518 83.08079111 -94.5625 85.6875 C-99.0084376 99.02531281 -98.33524423 117.88704999 -94.8125 131.4375 C-94.51730469 132.69433594 -94.22210938 133.95117188 -93.91796875 135.24609375 C-89.89540812 151.25779256 -82.06239072 164.78819236 -70.96484375 176.93359375 C-68.8125 179.4375 -68.8125 179.4375 -67.8125 182.4375 C-82.27588735 175.80062096 -92.23132205 155.60228944 -97.60595703 141.33056641 C-106.47605917 115.93486253 -106.65553783 85.96924425 -95.13208008 61.35668945 C-82.64862606 36.01754752 -62.3620396 15.48503616 -35.625 5.5 C-23.73298109 1.75830535 -12.47444951 -0.10158215 0 0 Z " fill="#FDF1DB" transform="translate(128.8125,20.5625)"/>
<path d="M0 0 C14.51460927 13.98634792 20.59237759 32.6251893 21.25 52.5 C20.52914912 75.48242206 11.9693424 95.67185503 -4.49169922 111.6015625 C-22.07400944 127.90319295 -42.60772246 132.90837996 -65.91796875 132.3203125 C-82.32043095 131.62552589 -95.51222952 124.99184698 -109 116 C-109 115.34 -109 114.68 -109 114 C-98.5281897 110.08964046 -88.55613394 111.13707962 -77.61474609 111.84033203 C-66.63846716 112.5105922 -56.66584662 111.86446623 -46 109 C-44.71609375 108.65775391 -44.71609375 108.65775391 -43.40625 108.30859375 C-38.73767599 106.90962037 -34.90931034 104.89647569 -30.859375 102.19921875 C-29 101 -29 101 -25.5625 99.3125 C-22.88289387 98.25929199 -22.88289387 98.25929199 -22 96 C-22.66 96 -23.32 96 -24 96 C-25.38232443 94.37373596 -26.71937515 92.7074998 -28 91 C-31.21852831 91.63065757 -33.50801069 92.78020695 -36.25 94.5625 C-36.95640625 95.01753906 -37.6628125 95.47257812 -38.390625 95.94140625 C-38.92171875 96.29074219 -39.4528125 96.64007813 -40 97 C-39.835 96.14277344 -39.67 95.28554687 -39.5 94.40234375 C-38.30240155 87.66619858 -38.30240155 87.66619858 -40.71484375 81.61328125 C-42.73699643 79.91808472 -44.7966809 78.44638015 -47 77 C-47 76.67 -47 76.34 -47 76 C-42.71 76 -38.42 76 -34 76 C-33.67 74.02 -33.34 72.04 -33 70 C-32.13826227 67.57999041 -31.07589316 65.33889818 -30 63 C-28 64 -28 64 -27.1484375 65.9609375 C-26.89320313 66.75757813 -26.63796875 67.55421875 -26.375 68.375 C-26.11460937 69.16648437 -25.85421875 69.95796875 -25.5859375 70.7734375 C-25 73 -25 73 -25 76 C-20.71 76 -16.42 76 -12 76 C-14.85276137 78.93200474 -17.65079784 81.64315404 -21 84 C-20.71872579 85.48117801 -20.42466268 86.95993249 -20.125 88.4375 C-19.96257812 89.26121094 -19.80015625 90.08492188 -19.6328125 90.93359375 C-19.31957031 91.95646484 -19.31957031 91.95646484 -19 93 C-18.34 93.33 -17.68 93.66 -17 94 C-17 93.34 -17 92.68 -17 92 C-15.86389032 90.86389032 -14.72306856 89.73220627 -13.5625 88.62109375 C-11.05886172 86.02356904 -8.93100164 83.14736473 -6.74609375 80.28125 C-5 78 -5 78 -2.98046875 75.73046875 C-0.47488219 72.276021 0.77220716 68.83151155 2.125 64.8125 C2.37636719 64.10802734 2.62773437 63.40355469 2.88671875 62.67773438 C9.31487912 44.08318672 9.26023106 24.26058115 2 6 C1.32242937 4.00366774 0.65202401 2.00482147 0 0 Z " fill="#E75E00" transform="translate(189,71)"/>
<path d="M0 0 C17.59919358 -0.91424382 32.37145416 3.08622891 47.99560547 11.11914062 C47.99560547 11.77914062 47.99560547 12.43914063 47.99560547 13.11914062 C46.96822266 13.47105469 45.94083984 13.82296875 44.88232422 14.18554688 C30.17106547 19.33121291 30.17106547 19.33121291 18.30810547 29.11914062 C15.99560547 31.11914062 15.99560547 31.11914062 11.99560547 31.11914062 C8.46493042 30.42479637 6.0736526 28.9802854 2.99560547 27.11914062 C-6.32902802 23.47186701 -16.1333345 23.43405893 -26.00439453 23.11914062 C-25.67439453 20.80914062 -25.34439453 18.49914062 -25.00439453 16.11914062 C-24.34439453 16.11914062 -23.68439453 16.11914062 -23.00439453 16.11914062 C-22.67439453 11.82914063 -22.34439453 7.53914063 -22.00439453 3.11914062 C-14.63089453 1.53910491 -7.52245893 0.44713276 0 0 Z " fill="#FE9301" transform="translate(124.00439453125,33.880859375)"/>
<path d="M0 0 C1.125 3.75 1.125 3.75 0 6 C3.96 6 7.92 6 12 6 C11.01 6.33 10.02 6.66 9 7 C9.28073073 9.14729141 9.57488499 11.29283193 9.875 13.4375 C10.03742188 14.63246094 10.19984375 15.82742187 10.3671875 17.05859375 C10.57601562 18.02925781 10.78484375 18.99992187 11 20 C11.66 20.33 12.32 20.66 13 21 C12.09554502 26.56953853 11.46959648 30.22877797 7 34 C5.76487921 36.13309192 5.76487921 36.13309192 5 38 C4.34 36.02 3.68 34.04 3 32 C2.67 32.99 2.34 33.98 2 35 C1.34 35 0.68 35 0 35 C-0.144375 36.134375 -0.28875 37.26875 -0.4375 38.4375 C-1 42 -1 42 -2 43 C-4.24621176 43.21168488 -6.49763282 43.36915709 -8.75 43.5 C-12.92885432 43.74478645 -16.91596027 44.06472373 -21 45 C-21 43.35 -21 41.7 -21 40 C-21.78375 39.9175 -22.5675 39.835 -23.375 39.75 C-24.24125 39.5025 -25.1075 39.255 -26 39 C-26.309375 38.34 -26.61875 37.68 -26.9375 37 C-27.288125 36.34 -27.63875 35.68 -28 35 C-31.05908413 34.18415432 -31.05908413 34.18415432 -34 34 C-30.25474201 30.25474201 -26.01729091 30.31090051 -21 30 C-21 30.99 -21 31.98 -21 33 C-11.92023408 33.33060749 -11.92023408 33.33060749 -3 32 C-2.67 31.34 -2.34 30.68 -2 30 C-1.34 30 -0.68 30 0 30 C2.53056598 24.58439188 2.45569031 19.75907481 1 14 C-1.35547425 11.71204241 -1.35547425 11.71204241 -4 11 C-3.39301257 6.87248551 -1.96189209 3.6678852 0 0 Z " fill="#FDD67E" transform="translate(98,51)"/>
<path d="M0 0 C2 1 2 1 2.8515625 3.50390625 C3.56770833 6.3359375 4.28385417 9.16796875 5 12 C9.62 12 14.24 12 19 12 C19 12.66 19 13.32 19 14 C16.76300423 15.62238683 14.42302461 17.0228441 12.06640625 18.46484375 C9.71260243 19.90728113 9.71260243 19.90728113 9 23 C9.53417136 25.7668544 9.53417136 25.7668544 10.4375 28.6875 C10.86869141 30.17830078 10.86869141 30.17830078 11.30859375 31.69921875 C11.53675781 32.45847656 11.76492187 33.21773437 12 34 C9.41283532 32.7677513 7.34283312 31.52081582 5 29.8125 C2.29886461 27.82762812 2.29886461 27.82762812 0 28 C-2.84460143 29.42230071 -5.40337141 31.17055713 -8 33 C-8.66 32.67 -9.32 32.34 -10 32 C-9.34 28.04 -8.68 24.08 -8 20 C-9.32 19.34 -10.64 18.68 -12 18 C-13.70496537 16.37253306 -15.37897032 14.71108689 -17 13 C-12.71 12.34 -8.42 11.68 -4 11 C-3.34 8.69 -2.68 6.38 -2 4 C-1.34 4 -0.68 4 0 4 C0 2.68 0 1.36 0 0 Z " fill="#BF1F07" transform="translate(100,82)"/>
<path d="M0 0 C2 1 2 1 2.8515625 3.50390625 C3.56770833 6.3359375 4.28385417 9.16796875 5 12 C9.62 12 14.24 12 19 12 C19 12.66 19 13.32 19 14 C16.76300423 15.62238683 14.42302461 17.0228441 12.06640625 18.46484375 C9.71260243 19.90728113 9.71260243 19.90728113 9 23 C9.53035828 24.98736771 9.53035828 24.98736771 10.4375 27 C11.56692836 29.67416223 12 31.02545489 12 34 C9.40899946 32.8041536 7.32633188 31.50878367 5 29.8125 C2.29886461 27.82762812 2.29886461 27.82762812 0 28 C-2.84460143 29.42230071 -5.40337141 31.17055713 -8 33 C-8.66 32.67 -9.32 32.34 -10 32 C-9.67 31.67 -9.34 31.34 -9 31 C-7.93824387 27.5787858 -7.45026962 24.55492315 -8 21 C-10.63266479 18.03891425 -13.67968886 16.11645564 -17 14 C-17 13.67 -17 13.34 -17 13 C-10.565 12.505 -10.565 12.505 -4 12 C-3.525625 10.576875 -3.05125 9.15375 -2.5625 7.6875 C-1.70833333 5.125 -0.85416667 2.5625 0 0 Z " fill="#C12216" transform="translate(149,81)"/>
<path d="M0 0 C0.66 0 1.32 0 2 0 C3.32 3.96 4.64 7.92 6 12 C10.29 12.33 14.58 12.66 19 13 C16.10492782 15.97549085 13.33810482 18.49642139 10 21 C10.66 25.29 11.32 29.58 12 34 C5.25 30.25 5.25 30.25 3 28 C-0.96732823 28.28338059 -3.79665839 30.8412263 -7 33 C-7.66 33 -8.32 33 -9 33 C-8.835 32.20335937 -8.67 31.40671875 -8.5 30.5859375 C-7.97974528 27.24492669 -7.66040003 24.37020725 -8 21 C-9.88461139 18.73331477 -11.65993764 17.53211077 -14.21484375 16.0859375 C-14.80394531 15.72757813 -15.39304687 15.36921875 -16 15 C-16 14.34 -16 13.68 -16 13 C-11.71 13 -7.42 13 -3 13 C-2.690625 11.5975 -2.38125 10.195 -2.0625 8.75 C-1.41650906 5.82150775 -0.73989213 2.90624297 0 0 Z " fill="#B4220D" transform="translate(109,135)"/>
<path d="M0 0 C2 1 2 1 2.8515625 2.9609375 C3.10679687 3.75757813 3.36203125 4.55421875 3.625 5.375 C4.01558594 6.56222656 4.01558594 6.56222656 4.4140625 7.7734375 C5 10 5 10 5 13 C9.29 13 13.58 13 18 13 C15.14723863 15.93200474 12.34920216 18.64315404 9 21 C9.15597656 21.60328125 9.31195313 22.2065625 9.47265625 22.828125 C9.66730469 23.62734375 9.86195313 24.4265625 10.0625 25.25 C10.35833984 26.43335938 10.35833984 26.43335938 10.66015625 27.640625 C11.01497267 30.10394822 10.76877544 31.65604132 10 34 C9.20335937 33.33291016 9.20335937 33.33291016 8.390625 32.65234375 C7.68421875 32.08644531 6.9778125 31.52054688 6.25 30.9375 C5.55390625 30.36902344 4.8578125 29.80054688 4.140625 29.21484375 C2.11818983 27.80302317 2.11818983 27.80302317 0 28.15625 C-2.24788895 29.10457815 -4.20437482 30.23284363 -6.25 31.5625 C-6.95640625 32.01753906 -7.6628125 32.47257812 -8.390625 32.94140625 C-8.92171875 33.29074219 -9.4528125 33.64007813 -10 34 C-9.835 33.14277344 -9.67 32.28554687 -9.5 31.40234375 C-8.30240155 24.66619858 -8.30240155 24.66619858 -10.71484375 18.61328125 C-12.73699643 16.91808472 -14.7966809 15.44638015 -17 14 C-17 13.67 -17 13.34 -17 13 C-12.71 13 -8.42 13 -4 13 C-3.67 11.02 -3.34 9.04 -3 7 C-2.13826227 4.57999041 -1.07589316 2.33889818 0 0 Z " fill="#CA2306" transform="translate(159,134)"/>
<path d="M0 0 C3.39453125 1.46875 3.39453125 1.46875 6.8125 3.5 C7.41489502 3.85658691 8.01729004 4.21317383 8.63793945 4.58056641 C13.39736588 7.46617802 17.75634906 10.74569282 22.01171875 14.3359375 C24.10127609 16.14598158 24.10127609 16.14598158 27 18 C27 18.66 27 19.32 27 20 C27.57234375 20.23074219 28.1446875 20.46148437 28.734375 20.69921875 C43.87183949 29.39021129 52.9138761 54.16717415 57.3359375 70.00390625 C58 73 58 73 58 77 C57.34 77 56.68 77 56 77 C55.65001953 75.38158203 55.65001953 75.38158203 55.29296875 73.73046875 C51.05334871 55.73744017 42.32562063 40.78250945 29 28 C28.16597656 27.18144531 27.33195312 26.36289062 26.47265625 25.51953125 C20.79125017 20.16123831 14.71962699 15.95272176 8 12 C7.2265625 11.525625 6.453125 11.05125 5.65625 10.5625 C0.32928206 7.41133587 -5.0150337 5.53684938 -11 4 C-7.61880359 -0.3279314 -5.35667584 -0.48797875 0 0 Z " fill="#FBEFD5" transform="translate(174,30)"/>
<path d="M0 0 C2.94409902 1.55234312 4.81838078 2.56845781 7 5 C8.51370833 9.97361308 8.6704845 14.3716805 6.6875 19.1875 C6.130625 19.785625 5.57375 20.38375 5 21 C4.34 21 3.68 21 3 21 C2.67 21.99 2.34 22.98 2 24 C-3.34549719 25.12536783 -10.93067925 26.53466037 -16 24 C-16 23.01 -16 22.02 -16 21 C-18.31 21.33 -20.62 21.66 -23 22 C-19.1921894 18.8063524 -15.17835929 16.11973353 -10.98828125 13.46484375 C-8.74451433 11.98603903 -8.74451433 11.98603903 -7 9 C-6.34 9 -5.68 9 -5 9 C-4.731875 8.443125 -4.46375 7.88625 -4.1875 7.3125 C-2.89877353 4.80287477 -1.47073522 2.40665764 0 0 Z " fill="#FDE8BC" transform="translate(93,60)"/>
<path d="M0 0 C0.66 0.33 1.32 0.66 2 1 C2.5625 2.71484375 2.5625 2.71484375 3 4.9375 C3.144375 5.64777344 3.28875 6.35804687 3.4375 7.08984375 C3.623125 8.05019531 3.80875 9.01054688 4 10 C4.16685303 10.70793701 4.33370605 11.41587402 4.50561523 12.14526367 C5.97208115 18.65922112 6.21127165 24.77884167 6.0625 31.4375 C6.02808569 33.37362368 5.9979408 35.30982932 5.97265625 37.24609375 C5.95468994 38.08841553 5.93672363 38.9307373 5.91821289 39.79858398 C5.90346249 42.17836835 5.90346249 42.17836835 7 45 C6.67 45.66 6.34 46.32 6 47 C5.34 47 4.68 47 4 47 C1.9474944 43.16270693 0.8697257 40.34862851 0 36 C-1.65 39.96 -3.3 43.92 -5 48 C-9.62 48.33 -14.24 48.66 -19 49 C-19 48.34 -19 47.68 -19 47 C-17.700625 46.7525 -17.700625 46.7525 -16.375 46.5 C-9.7976212 43.57672053 -6.54423827 36.94837386 -3.8828125 30.49609375 C-0.79309329 21.76011775 0.63616379 15.12054596 -2.0625 6.125 C-2.371875 5.09375 -2.68125 4.0625 -3 3 C-2.01 2.01 -1.02 1.02 0 0 Z " fill="#FA8F05" transform="translate(160,99)"/>
<path d="M0 0 C-3.37100733 1.68550367 -6.72014632 -0.31136964 -10.125 -1.4375 C-11.25615234 -1.80198242 -11.25615234 -1.80198242 -12.41015625 -2.17382812 C-14.27557879 -2.77595819 -16.13807683 -3.38713463 -18 -4 C-18.66 -2.68 -19.32 -1.36 -20 0 C-24.07412455 -0.43651335 -27.76853642 -0.93656542 -31.734375 -2.0234375 C-36.11459139 -3.13986347 -40.2462093 -3.30345179 -44.75 -3.25 C-45.95716675 -3.24419922 -45.95716675 -3.24419922 -47.1887207 -3.23828125 C-56.51245159 -3.10892223 -65.74758071 -2.09196097 -75 -1 C-74.97679688 -0.31292969 -74.95359375 0.37414063 -74.9296875 1.08203125 C-74.91164063 1.98308594 -74.89359375 2.88414063 -74.875 3.8125 C-74.85179688 4.70582031 -74.82859375 5.59914063 -74.8046875 6.51953125 C-75 9 -75 9 -77 12 C-76.97679688 11.18015625 -76.95359375 10.3603125 -76.9296875 9.515625 C-76.91164063 8.43796875 -76.89359375 7.3603125 -76.875 6.25 C-76.84019531 4.64898437 -76.84019531 4.64898437 -76.8046875 3.015625 C-76.99512313 0.07529894 -77.47329896 -1.52361878 -79 -4 C-76.79290017 -4.65003625 -74.58426108 -5.29484745 -72.375 -5.9375 C-71.14523438 -6.29714844 -69.91546875 -6.65679688 -68.6484375 -7.02734375 C-46.39838142 -12.95910388 -20.76423169 -9.53722642 0 0 Z " fill="#FAB318" transform="translate(177,38)"/>
<path d="M0 0 C0.639375 0.639375 1.27875 1.27875 1.9375 1.9375 C2.4015625 2.39511719 2.865625 2.85273438 3.34375 3.32421875 C4.53635798 4.5308905 5.69985817 5.76658194 6.84375 7.01953125 C14.0479604 14.69416584 23.00955433 21.41320466 33 25 C30.63151208 27.79419654 28.68103109 28.65387613 25.125 29.4375 C24.28195313 29.64246094 23.43890625 29.84742188 22.5703125 30.05859375 C18.85508331 29.97390008 17.62506187 28.57980219 15 26 C13.23998158 23.81647714 11.59984016 21.66758648 10 19.375 C9.56574707 18.75979492 9.13149414 18.14458984 8.68408203 17.51074219 C0 4.9782921 0 4.9782921 0 0 Z " fill="#E86001" transform="translate(56,153)"/>
<path d="M0 0 C2 1 2 1 2.8515625 3.50390625 C3.56770833 6.3359375 4.28385417 9.16796875 5 12 C9.62 12 14.24 12 19 12 C19 12.66 19 13.32 19 14 C13.39 15.65 7.78 17.3 2 19 C2.66 20.65 3.32 22.3 4 24 C3.21625 23.649375 2.4325 23.29875 1.625 22.9375 C0.75875 22.628125 -0.1075 22.31875 -1 22 C-1.66 22.33 -2.32 22.66 -3 23 C-2.67 21.35 -2.34 19.7 -2 18 C-5.25421621 17.44440211 -8.46282859 16.95371714 -11.75 16.625 C-13.35875 16.315625 -13.35875 16.315625 -15 16 C-15.66 15.01 -16.32 14.02 -17 13 C-12.71 12.34 -8.42 11.68 -4 11 C-3.34 8.69 -2.68 6.38 -2 4 C-1.34 4 -0.68 4 0 4 C0 2.68 0 1.36 0 0 Z " fill="#C7280C" transform="translate(100,82)"/>
<path d="M0 0 C0.66 0.33 1.32 0.66 2 1 C1.98839844 2.13179687 1.97679688 3.26359375 1.96484375 4.4296875 C1.95546546 5.91145669 1.9463653 7.39322765 1.9375 8.875 C1.92912109 9.62136719 1.92074219 10.36773437 1.91210938 11.13671875 C1.79311916 15.19845578 1.79311916 15.19845578 3 19 C-0.86364295 23.48717034 -4.74790208 27.87675353 -9 32 C-8.835 31.27554688 -8.67 30.55109375 -8.5 29.8046875 C-7.97235587 26.7130227 -7.6604397 24.12481437 -8 21 C-9.88893794 18.80125903 -11.71356861 17.56694233 -14.21484375 16.12109375 C-14.80394531 15.75113281 -15.39304687 15.38117188 -16 15 C-16 14.34 -16 13.68 -16 13 C-11.71 13 -7.42 13 -3 13 C-2.690625 11.5975 -2.38125 10.195 -2.0625 8.75 C-1.41650906 5.82150775 -0.73989213 2.90624297 0 0 Z " fill="#CC2C12" transform="translate(109,135)"/>
<path d="M0 0 C2.31 0.66 4.62 1.32 7 2 C7 2.99 7 3.98 7 5 C7.59296875 5.11859375 8.1859375 5.2371875 8.796875 5.359375 C16.36871817 7.56111663 20.36170216 15.16094547 24.08203125 21.5078125 C29.80959224 31.93640624 36 43.85129741 36 56 C35.34 56 34.68 56 34 56 C33.65001953 54.38158203 33.65001953 54.38158203 33.29296875 52.73046875 C28.26172824 31.37778775 16.84775359 14.8525974 0 1 C0 0.67 0 0.34 0 0 Z " fill="#FBEAC2" transform="translate(196,51)"/>
<path d="M0 0 C1.65 0 3.3 0 5 0 C2.14723863 2.93200474 -0.65079784 5.64315404 -4 8 C-3.5359375 9.546875 -3.5359375 9.546875 -3.0625 11.125 C-2.12497188 14.38972557 -1.49227298 17.63613462 -1 21 C-3.59100054 19.8041536 -5.67366812 18.50878367 -8 16.8125 C-10.71366353 14.76862022 -10.71366353 14.76862022 -13.0625 15.1875 C-13.701875 15.455625 -14.34125 15.72375 -15 16 C-16.66519519 16.34060811 -18.33157466 16.67558396 -20 17 C-19 15.33333333 -18 13.66666667 -17 12 C-16.484375 11.071875 -15.96875 10.14375 -15.4375 9.1875 C-14.963125 8.465625 -14.48875 7.74375 -14 7 C-13.34 7 -12.68 7 -12 7 C-11.67 6.34 -11.34 5.68 -11 5 C-8.49609375 4.1484375 -8.49609375 4.1484375 -5.4375 3.375 C-4.42558594 3.11460938 -3.41367188 2.85421875 -2.37109375 2.5859375 C-1.19740234 2.29589844 -1.19740234 2.29589844 0 2 C0 1.34 0 0.68 0 0 Z " fill="#C31C0A" transform="translate(162,94)"/>
<path d="M0 0 C2.8670615 2.8670615 4 4.91591468 4 9 C8.29 9 12.58 9 17 9 C14.14723863 11.93200474 11.34920216 14.64315404 8 17 C8.15597656 17.60328125 8.31195313 18.2065625 8.47265625 18.828125 C8.66730469 19.62734375 8.86195313 20.4265625 9.0625 21.25 C9.25972656 22.03890625 9.45695313 22.8278125 9.66015625 23.640625 C10.01497267 26.10394822 9.76877544 27.65604132 9 30 C8.27683594 28.75283203 8.27683594 28.75283203 7.5390625 27.48046875 C6.90742188 26.39378906 6.27578125 25.30710938 5.625 24.1875 C4.99851563 23.10855469 4.37203125 22.02960938 3.7265625 20.91796875 C2.53944654 18.91168907 1.29310627 16.93965941 0 15 C0.66 14.34 1.32 13.68 2 13 C1.34 12.67 0.68 12.34 0 12 C0 8.04 0 4.08 0 0 Z " fill="#900C04" transform="translate(160,138)"/>
<path d="M0 0 C2.94409902 1.55234312 4.81838078 2.56845781 7 5 C8.51370833 9.97361308 8.6704845 14.3716805 6.6875 19.1875 C6.130625 19.785625 5.57375 20.38375 5 21 C4.34 21 3.68 21 3 21 C2.67 21.99 2.34 22.98 2 24 C-3.34549719 25.12536783 -10.93067925 26.53466037 -16 24 C-16 23.01 -16 22.02 -16 21 C-18.31 21.33 -20.62 21.66 -23 22 C-20.80202597 19.80202597 -19.82453855 19.54102483 -16.875 18.875 C-15.59625 18.58625 -14.3175 18.2975 -13 18 C-13 19.65 -13 21.3 -13 23 C-7.67829506 23.29562367 -7.67829506 23.29562367 -3 21 C-2.484375 20.29875 -1.96875 19.5975 -1.4375 18.875 C-0.963125 18.25625 -0.48875 17.6375 0 17 C0.66 17 1.32 17 2 17 C2 16.34 2 15.68 2 15 C2.66 15 3.32 15 4 15 C4 11.7 4 8.4 4 5 C2.35 5 0.7 5 -1 5 C-0.67 3.35 -0.34 1.7 0 0 Z " fill="#FDDE9F" transform="translate(93,60)"/>
<path d="M0 0 C1.125 3.75 1.125 3.75 0 6 C3.96 6 7.92 6 12 6 C11.01 6.33 10.02 6.66 9 7 C9.28073073 9.14729141 9.57488499 11.29283193 9.875 13.4375 C10.03742188 14.63246094 10.19984375 15.82742187 10.3671875 17.05859375 C10.57601562 18.02925781 10.78484375 18.99992187 11 20 C11.66 20.33 12.32 20.66 13 21 C12.09554502 26.56953853 11.46959648 30.22877797 7 34 C5.76487921 36.13309192 5.76487921 36.13309192 5 38 C4.3125 36.3125 4.3125 36.3125 4 34 C4.4846875 33.3090625 4.969375 32.618125 5.46875 31.90625 C7.56828544 27.92141744 7.33212723 24.61160996 7.1875 20.1875 C7.17396484 19.39923828 7.16042969 18.61097656 7.14648438 17.79882812 C7.11133456 15.86558831 7.05753361 13.93270318 7 12 C6.0409375 11.8453125 6.0409375 11.8453125 5.0625 11.6875 C4.381875 11.460625 3.70125 11.23375 3 11 C2.67 10.01 2.34 9.02 2 8 C0.68 8 -0.64 8 -2 8 C-1.125 2.25 -1.125 2.25 0 0 Z " fill="#FDC33A" transform="translate(98,51)"/>
<path d="M0 0 C0.66 0.33 1.32 0.66 2 1 C1.67 5.95 1.34 10.9 1 16 C2.32 16.66 3.64 17.32 5 18 C4.01 18.66 3.02 19.32 2 20 C2.42152344 20.53109375 2.84304687 21.0621875 3.27734375 21.609375 C4.09912109 22.66898438 4.09912109 22.66898438 4.9375 23.75 C5.48277344 24.44609375 6.02804688 25.1421875 6.58984375 25.859375 C7.97425654 27.96092128 8.56286987 29.54321799 9 32 C5.56244012 30.75865893 2.65119317 29.5565077 0 27 C-0.75 24.3125 -0.75 24.3125 -1 22 C-1.66 22.33 -2.32 22.66 -3 23 C-2.67 21.35 -2.34 19.7 -2 18 C-3.98 17.67 -5.96 17.34 -8 17 C-4.98968256 16.06576355 -4.13349732 15.95550089 -1 17 C-1 14.36 -1 11.72 -1 9 C-1.66 9 -2.32 9 -3 9 C-2.01 6.03 -1.02 3.06 0 0 Z " fill="#C32D1F" transform="translate(159,134)"/>
<path d="M0 0 C3.41361802 1.1993793 5.56488996 2.33297472 8 5 C10.83269666 6.41634833 13.47466438 6.3463005 16.625 6.5625 C17.81351563 6.64628906 19.00203125 6.73007813 20.2265625 6.81640625 C21.59941406 6.90728516 21.59941406 6.90728516 23 7 C23.33 6.01 23.66 5.02 24 4 C25.84765625 2.83203125 25.84765625 2.83203125 28.0625 1.8125 C28.79597656 1.46832031 29.52945313 1.12414062 30.28515625 0.76953125 C30.85105469 0.51558594 31.41695312 0.26164062 32 0 C32 0.66 32 1.32 32 2 C31.34 2 30.68 2 30 2 C29.855625 3.134375 29.71125 4.26875 29.5625 5.4375 C29 9 29 9 28 10 C25.75378824 10.21168488 23.50236718 10.36915709 21.25 10.5 C17.07114568 10.74478645 13.08403973 11.06472373 9 12 C9 10.35 9 8.7 9 7 C8.21625 6.9175 7.4325 6.835 6.625 6.75 C4 6 4 6 2.6875 3.9375 C2.460625 3.298125 2.23375 2.65875 2 2 C1.34 2 0.68 2 0 2 C0 1.34 0 0.68 0 0 Z " fill="#FCBB38" transform="translate(68,84)"/>
<path d="M0 0 C2.33333333 2.33333333 4.66666667 4.66666667 7 7 C7.33 5.68 7.66 4.36 8 3 C8.66 6.63 9.32 10.26 10 14 C3.25 10.25 3.25 10.25 1 8 C-2.96017943 8.28286996 -5.84549333 10.77750666 -9 13 C-9.66 12.67 -10.32 12.34 -11 12 C-9.54601271 10.18401175 -8.08667675 8.37230481 -6.625 6.5625 C-5.40683594 5.04849609 -5.40683594 5.04849609 -4.1640625 3.50390625 C-2 1 -2 1 0 0 Z " fill="#BE1204" transform="translate(111,155)"/>
<path d="M0 0 C2.64199597 2.35014757 3.96021014 4.71091962 5.5 7.875 C8.44571102 13.4681222 12.12035985 17.98455637 16.3046875 22.67138672 C18.48136487 25.12166455 19.95052443 26.85157329 21 30 C13.67505003 26.63876755 9.23323156 20.19109763 4.625 13.8125 C3.96346924 12.90322754 3.96346924 12.90322754 3.28857422 11.97558594 C-0.72203716 6.29898008 -0.72203716 6.29898008 -1 3 C-0.67 2.01 -0.34 1.02 0 0 Z " fill="#FAF1D8" transform="translate(40,173)"/>
<path d="M0 0 C1.32 0 2.64 0 4 0 C15 22.06179775 15 22.06179775 15 33 C14.34 33 13.68 33 13 33 C12.5978125 31.29457031 12.5978125 31.29457031 12.1875 29.5546875 C9.80507049 19.99483843 6.80595771 11.88959062 1.57421875 3.52734375 C0 1 0 1 0 0 Z " fill="#F4DFAD" transform="translate(217,74)"/>
<path d="M0 0 C15.51 0 31.02 0 47 0 C47 0.33 47 0.66 47 1 C39.09915935 2.72217927 31.57523529 3.30944958 23.5 3.25 C22.44941406 3.25773438 21.39882812 3.26546875 20.31640625 3.2734375 C13.34360455 3.25619942 6.81111198 2.48464655 0 1 C0 0.67 0 0.34 0 0 Z " fill="#EFB74C" transform="translate(106,226)"/>
<path d="M0 0 C1.65 0 3.3 0 5 0 C0.33589251 4.79366603 0.33589251 4.79366603 -2.1875 6.34375 C-4.27762926 7.87131231 -4.27762926 7.87131231 -4.171875 10.48046875 C-4.03265625 11.37378906 -3.8934375 12.26710938 -3.75 13.1875 C-3.62109375 14.08855469 -3.4921875 14.98960938 -3.359375 15.91796875 C-3.24078125 16.60503906 -3.1221875 17.29210937 -3 18 C-4.33333333 16.33333333 -5.66666667 14.66666667 -7 13 C-7.7425 12.13375 -8.485 11.2675 -9.25 10.375 C-11 8 -11 8 -11 5 C-7.37 4.01 -3.74 3.02 0 2 C0 1.34 0 0.68 0 0 Z " fill="#900C04" transform="translate(162,94)"/>
<path d="M0 0 C0 0.99 0 1.98 0 3 C-1.79036458 3.9765625 -3.58072917 4.953125 -5.37109375 5.9296875 C-7.16618315 6.91410024 -7.16618315 6.91410024 -8 9 C-10.06183633 9.08150744 -12.12461349 9.1394194 -14.1875 9.1875 C-15.33605469 9.22230469 -16.48460938 9.25710937 -17.66796875 9.29296875 C-22.66417494 8.85367747 -25.09105686 7.05633933 -28.3125 3.3125 C-28.869375 2.549375 -29.42625 1.78625 -30 1 C-28.35 1 -26.7 1 -25 1 C-25 1.99 -25 2.98 -25 4 C-18.48965215 6.35480667 -12.84711994 6.77469569 -6.42578125 3.8125 C-4.23721805 2.60312128 -2.10508772 1.34864958 0 0 Z " fill="#FDCD5F" transform="translate(99,82)"/>
<path d="M0 0 C2.8670615 2.8670615 4 4.91591468 4 9 C8.29 9 12.58 9 17 9 C13.92696582 12.07303418 13.09769598 12.51759673 9.0625 13.3125 C8.20785156 13.49425781 7.35320312 13.67601562 6.47265625 13.86328125 C4 14 4 14 0 12 C0 8.04 0 4.08 0 0 Z " fill="#B80E03" transform="translate(160,138)"/>
<path d="M0 0 C2 1 2 1 2.6328125 2.84765625 C3.08854167 4.8984375 3.54427083 6.94921875 4 9 C8.62 9 13.24 9 18 9 C17.67 9.66 17.34 10.32 17 11 C15.35 10.67 13.7 10.34 12 10 C12 10.66 12 11.32 12 12 C8.04 12.66 4.08 13.32 0 14 C0 9.38 0 4.76 0 0 Z " fill="#BF2308" transform="translate(150,84)"/>
<path d="M0 0 C-0.75796875 0.51046875 -0.75796875 0.51046875 -1.53125 1.03125 C-5.52554654 3.87766578 -5.52554654 3.87766578 -7.46484375 8.1796875 C-7.47376462 10.62022609 -7.47376462 10.62022609 -7 14 C-10.28788824 10.88983545 -12.83735988 7.98381075 -15 4 C-2.76595745 -1.38297872 -2.76595745 -1.38297872 0 0 Z " fill="#8D0C04" transform="translate(116,97)"/>
<path d="M0 0 C0.99 0 1.98 0 3 0 C4.14544249 3.43632747 4.2397802 6.25431955 4.3125 9.875 C4.36857422 11.69644531 4.36857422 11.69644531 4.42578125 13.5546875 C3.93216102 17.54893563 2.75442353 19.14235349 0 22 C-2 19 -2 19 -1.6875 16.9375 C-1 15 -1 15 0 13 C0.07092842 10.7927077 0.08415025 8.58332548 0.0625 6.375 C0.04896484 4.59222656 0.04896484 4.59222656 0.03515625 2.7734375 C0.02355469 1.85820313 0.01195313 0.94296875 0 0 Z " fill="#FDC952" transform="translate(102,63)"/>
<path d="M0 0 C4.62 0 9.24 0 14 0 C14 0.66 14 1.32 14 2 C8.39 3.65 2.78 5.3 -3 7 C-2.34 8.65 -1.68 10.3 -1 12 C-1.78375 11.649375 -2.5675 11.29875 -3.375 10.9375 C-4.24125 10.628125 -5.1075 10.31875 -6 10 C-6.99 10.495 -6.99 10.495 -8 11 C-7.67 9.35 -7.34 7.7 -7 6 C-9.97 5.505 -9.97 5.505 -13 5 C-13 4.67 -13 4.34 -13 4 C-12.20335938 4.02320312 -11.40671875 4.04640625 -10.5859375 4.0703125 C-2.605026 4.23848592 -2.605026 4.23848592 5 2 C2.525 1.505 2.525 1.505 0 1 C0 0.67 0 0.34 0 0 Z " fill="#C53B0F" transform="translate(105,94)"/>
<path d="M0 0 C1.28317892 3.84953676 1.06643637 6.94738135 1 11 C-0.3921875 11.61875 -0.3921875 11.61875 -1.8125 12.25 C-4.92687186 13.95985121 -6.04219635 15.1611847 -8 18 C-8.66 18 -9.32 18 -10 18 C-8.6948802 13.5730861 -6.9640877 10.04331547 -4.4375 6.1875 C-3.81746094 5.23230469 -3.19742188 4.27710937 -2.55859375 3.29296875 C-1 1 -1 1 0 0 Z " fill="#F7B829" transform="translate(49,72)"/>
<path d="M0 0 C-1.485 0.9590625 -1.485 0.9590625 -3 1.9375 C-5.18481659 3.7120224 -5.91901527 4.52520718 -6.3984375 7.3359375 C-6.37716456 9.58377811 -6.26257641 11.76810054 -6 14 C-8.9156164 10.45960866 -11.50127818 6.8373228 -14 3 C-12.72942818 2.52014033 -11.45853152 2.0411407 -10.1875 1.5625 C-9.47980469 1.29566406 -8.77210937 1.02882812 -8.04296875 0.75390625 C-3.15245009 -1.0508167 -3.15245009 -1.0508167 0 0 Z " fill="#8D0B04" transform="translate(125,151)"/>
<path d="M0 0 C0.66 0.33 1.32 0.66 2 1 C2 5.95 2 10.9 2 16 C6.455 15.505 6.455 15.505 11 15 C7.81237635 17.12508244 5.73487777 17.5020163 2 18 C1.67 18.99 1.34 19.98 1 21 C0.34 20.67 -0.32 20.34 -1 20 C-1 17.36 -1 14.72 -1 12 C-1.99 12 -2.98 12 -4 12 C-2.66666667 8 -1.33333333 4 0 0 Z " fill="#C32C1B" transform="translate(149,81)"/>
<path d="M0 0 C6.50014736 3.42735043 6.50014736 3.42735043 7.828125 7.60546875 C8.19876094 10.5906995 8.4581683 13.01976506 8 16 C6.68 17.65 5.36 19.3 4 21 C4 15.72 4 10.44 4 5 C2.35 5 0.7 5 -1 5 C-0.67 3.35 -0.34 1.7 0 0 Z " fill="#FEDC95" transform="translate(93,60)"/>
<path d="M0 0 C1.32 0 2.64 0 4 0 C3.55074862 4.82945236 2.45263456 7.54736544 -1 11 C-1.99 11 -2.98 11 -4 11 C-3.67 8.36 -3.34 5.72 -3 3 C-2.34 3 -1.68 3 -1 3 C-0.67 2.01 -0.34 1.02 0 0 Z " fill="#FBEECB" transform="translate(63,95)"/>
<path d="M0 0 C2.15737969 0.9743005 3.39293876 2.09875457 4.9375 3.875 C4.2775 3.875 3.6175 3.875 2.9375 3.875 C2.6075 4.535 2.2775 5.195 1.9375 5.875 C0.6175 5.215 -0.7025 4.555 -2.0625 3.875 C-2.0625 4.535 -2.0625 5.195 -2.0625 5.875 C-2.84625 5.83375 -3.63 5.7925 -4.4375 5.75 C-7.22366119 5.58771266 -7.22366119 5.58771266 -9.0625 7.875 C-10.3825 7.875 -11.7025 7.875 -13.0625 7.875 C-13.0625 7.215 -13.0625 6.555 -13.0625 5.875 C-11.99 5.441875 -10.9175 5.00875 -9.8125 4.5625 C-7.46955808 3.57723871 -5.88465471 2.73272377 -3.875 1.125 C-2.0625 -0.125 -2.0625 -0.125 0 0 Z " fill="#F59F13" transform="translate(150.0625,108.125)"/>
<path d="M0 0 C4.60853797 0.72008406 8.67237409 2.31295939 13 4 C12.625 6.4375 12.625 6.4375 12 9 C11.01 9.495 11.01 9.495 10 10 C9.46375 9.443125 8.9275 8.88625 8.375 8.3125 C6.54483437 6.53049662 4.72387615 4.92153649 2.75 3.3125 C1.8425 2.549375 0.935 1.78625 0 1 C0 0.67 0 0.34 0 0 Z " fill="#9F0F05" transform="translate(134,95)"/>
<path d="M0 0 C5.78702026 5.42533149 11.71961725 11.71586805 15 19 C8.10559906 15.88542414 3.79153793 10.43469792 0.62890625 3.69921875 C0 2 0 2 0 0 Z " fill="#FBE8BF" transform="translate(46,184)"/>
<path d="M0 0 C0.66 0 1.32 0 2 0 C2 0.66 2 1.32 2 2 C2.66 2 3.32 2 4 2 C5.80230168 5.82989106 6.19622241 8.78121808 6 13 C6.99 13.33 7.98 13.66 9 14 C8.67 15.32 8.34 16.64 8 18 C5.39667844 14.83936913 3.85961424 11.6568348 2.3125 7.875 C1.87550781 6.82054687 1.43851563 5.76609375 0.98828125 4.6796875 C0 2 0 2 0 0 Z " fill="#FCF4E5" transform="translate(31,159)"/>
<path d="M0 0 C2 1.3125 2 1.3125 4 3 C4 3.99 4 4.98 4 6 C6.64 6 9.28 6 12 6 C8.68661742 8.20892172 5.85901066 9.08787021 2 10 C1.34 9.67 0.68 9.34 0 9 C0 6.03 0 3.06 0 0 Z " fill="#9D1004" transform="translate(101,89)"/>
<path d="M0 0 C4.62 0 9.24 0 14 0 C13.0568628 3.77254881 12.54444306 4.91296455 10.125 7.6875 C9.35542969 8.59048828 9.35542969 8.59048828 8.5703125 9.51171875 C7 11 7 11 4 12 C4 10.68 4 9.36 4 8 C6.43879012 5.62653461 9.18275924 3.93685302 12 2 C8.04 1.67 4.08 1.34 0 1 C0 0.67 0 0.34 0 0 Z " fill="#ED740D" transform="translate(164,146)"/>
<path d="M0 0 C0.66 0.33 1.32 0.66 2 1 C1.67 5.95 1.34 10.9 1 16 C1.66 16.33 2.32 16.66 3 17 C2.01 17.33 1.02 17.66 0 18 C-1 17 -1 17 -1.09765625 15.15234375 C-1.06510417 13.1015625 -1.03255208 11.05078125 -1 9 C-1.66 9 -2.32 9 -3 9 C-2.01 6.03 -1.02 3.06 0 0 Z " fill="#C7290A" transform="translate(159,134)"/>
<path d="M0 0 C4.84688192 0.78175515 9.3766367 2.39844278 14 4 C14 4.99 14 5.98 14 7 C10.53283176 7.42455121 7.98768533 7.63494057 4.9765625 5.69921875 C3.22128319 4.19827583 1.55578118 2.70710336 0 1 C0 0.67 0 0.34 0 0 Z " fill="#9B1804" transform="translate(94,149)"/>
<path d="M0 0 C1.98 0 3.96 0 6 0 C5.67 0.99 5.34 1.98 5 3 C4.34 3 3.68 3 3 3 C2.67 5.64 2.34 8.28 2 11 C2.99 11.33 3.98 11.66 5 12 C3.68 12.33 2.36 12.66 1 13 C0.63631108 11.39796533 0.28438048 9.79325797 -0.0625 8.1875 C-0.25972656 7.29417969 -0.45695312 6.40085937 -0.66015625 5.48046875 C-1 3 -1 3 0 0 Z " fill="#F7BA2B" transform="translate(57,95)"/>
<path d="M0 0 C1.65 0 3.3 0 5 0 C1.62403049 2.86957408 -1.84944936 4.25509829 -6 5.75 C-7.216875 6.19859375 -8.43375 6.6471875 -9.6875 7.109375 C-12.78576596 7.94239934 -14.09639129 8.19047957 -17 7 C-13.2397529 4.45363601 -10.16944482 3.45277783 -5.6875 2.8125 C-4.08455078 2.57466797 -4.08455078 2.57466797 -2.44921875 2.33203125 C-1.23685547 2.16767578 -1.23685547 2.16767578 0 2 C0 1.34 0 0.68 0 0 Z " fill="#EEB446" transform="translate(170,218)"/>
<path d="M0 0 C1.69658297 2.54487446 2.4408037 4.0386675 3.25390625 6.87109375 C3.46853516 7.61037109 3.68316406 8.34964844 3.90429688 9.11132812 C4.12150391 9.87896484 4.33871094 10.64660156 4.5625 11.4375 C4.78357422 12.20126953 5.00464844 12.96503906 5.23242188 13.75195312 C6.21297247 17.15573753 7.15471532 20.55982095 8 24 C7.01 23.67 6.02 23.34 5 23 C4.34 19.37 3.68 15.74 3 12 C2.34 12 1.68 12 1 12 C-0.3271261 8.0186217 -0.06915913 4.14954773 0 0 Z " fill="#FCE9BA" transform="translate(32,149)"/>
<path d="M0 0 C0.33 0 0.66 0 1 0 C1.5 2.625 1.5 2.625 1 6 C-1.43224987 8.3682433 -4.13266952 10.19511787 -7 12 C-7.66 11.67 -8.32 11.34 -9 11 C-7.52444734 9.16375669 -6.04446569 7.3310715 -4.5625 5.5 C-3.73878906 4.4790625 -2.91507812 3.458125 -2.06640625 2.40625 C-1.38449219 1.6121875 -0.70257813 0.818125 0 0 Z " fill="#990D04" transform="translate(109,156)"/>
<path d="M0 0 C0.33 0 0.66 0 1 0 C1 3.3 1 6.6 1 10 C-4.53846154 9.38461538 -4.53846154 9.38461538 -6.875 7.4375 C-7.24625 6.963125 -7.6175 6.48875 -8 6 C-6.02 6 -4.04 6 -2 6 C-1.855625 5.195625 -1.71125 4.39125 -1.5625 3.5625 C-1 1 -1 1 0 0 Z " fill="#C40F03" transform="translate(108,142)"/>
<path d="M0 0 C0.33 0 0.66 0 1 0 C1.5625 2.5625 1.5625 2.5625 1 6 C-1.75648176 8.69200266 -4.8049334 10.85727677 -8 13 C-8 9.02348017 -6.55718178 7.85083826 -4.0625 4.8125 C-3.33160156 3.91144531 -2.60070312 3.01039063 -1.84765625 2.08203125 C-1.23792969 1.39496094 -0.62820312 0.70789063 0 0 Z " fill="#9A0E03" transform="translate(158,155)"/>
<path d="M0 0 C6.0546875 -0.1953125 6.0546875 -0.1953125 8 0 C8.66 0.66 9.32 1.32 10 2 C8.02 2.33 6.04 2.66 4 3 C4.02320312 3.68707031 4.04640625 4.37414063 4.0703125 5.08203125 C4.08835937 5.98308594 4.10640625 6.88414063 4.125 7.8125 C4.14820312 8.70582031 4.17140625 9.59914063 4.1953125 10.51953125 C4 13 4 13 2 16 C2.02320312 15.18015625 2.04640625 14.3603125 2.0703125 13.515625 C2.08835937 12.43796875 2.10640625 11.3603125 2.125 10.25 C2.15980469 8.64898437 2.15980469 8.64898437 2.1953125 7.015625 C2.00487687 4.07529894 1.52670104 2.47638122 0 0 Z " fill="#F6AC1F" transform="translate(98,34)"/>
<path d="M0 0 C7.66742597 5.96583144 7.66742597 5.96583144 9 11 C5.57562298 9.76341941 2.55265289 8.64719559 0 6 C-0.25 2.8125 -0.25 2.8125 0 0 Z " fill="#C31605" transform="translate(159,155)"/>
<path d="M0 0 C0.33 0 0.66 0 1 0 C1.5 2.625 1.5 2.625 1 6 C-1.43224987 8.3682433 -4.13266952 10.19511787 -7 12 C-7.66 11.67 -8.32 11.34 -9 11 C-7.52444734 9.16375669 -6.04446569 7.3310715 -4.5625 5.5 C-3.73878906 4.4790625 -2.91507812 3.458125 -2.06640625 2.40625 C-1.38449219 1.6121875 -0.70257813 0.818125 0 0 Z " fill="#910703" transform="translate(99,103)"/>
<path d="M0 0 C1.43793392 0.31049726 2.8753318 0.6234776 4.3125 0.9375 C5.11300781 1.11152344 5.91351563 1.28554687 6.73828125 1.46484375 C9 2 9 2 12 3 C12 3.66 12 4.32 12 5 C5.75917768 6.46842878 5.75917768 6.46842878 2.0625 4.1875 C0 2 0 2 0 0 Z " fill="#990F04" transform="translate(145,149)"/>
<path d="M0 0 C0.99 0.33 1.98 0.66 3 1 C3.94921875 3.36328125 3.94921875 3.36328125 4.6875 6.3125 C4.93886719 7.27800781 5.19023437 8.24351563 5.44921875 9.23828125 C6 12 6 12 6 16 C5.34 16 4.68 16 4 16 C2.68 10.72 1.36 5.44 0 0 Z " fill="#F5CC7E" transform="translate(226,91)"/>
<path d="M0 0 C3.41361802 1.1993793 5.56488996 2.33297472 8 5 C10.70183055 6.35091528 13.11808206 6.33858058 16.125 6.5625 C17.76855469 6.68818359 17.76855469 6.68818359 19.4453125 6.81640625 C20.28835937 6.87699219 21.13140625 6.93757813 22 7 C22 7.33 22 7.66 22 8 C7.76056338 8.57042254 7.76056338 8.57042254 3 5 C2.67 4.01 2.34 3.02 2 2 C1.34 2 0.68 2 0 2 C0 1.34 0 0.68 0 0 Z " fill="#FDC846" transform="translate(68,84)"/>
<path d="M0 0 C0.33 0.66 0.66 1.32 1 2 C2.32 2 3.64 2 5 2 C6.8125 4.375 6.8125 4.375 8 7 C7.67 7.66 7.34 8.32 7 9 C4.36 7.68 1.72 6.36 -1 5 C-0.67 3.35 -0.34 1.7 0 0 Z " fill="#FCD26E" transform="translate(95,57)"/>
<path d="M0 0 C0.66 0.33 1.32 0.66 2 1 C1.67 4.63 1.34 8.26 1 12 C-2.29518605 8.70481395 -2.81103326 7.5352017 -3 3 C-1.5625 1.125 -1.5625 1.125 0 0 Z " fill="#EE910F" transform="translate(160,99)"/>
<path d="M0 0 C4.19469571 0.59924224 8.00999834 1.57499941 12 3 C12 3.66 12 4.32 12 5 C6.71502591 5.44041451 6.71502591 5.44041451 4 5 C1.5 2.5 1.5 2.5 0 0 Z " fill="#9C1305" transform="translate(86,97)"/>
<path d="M0 0 C3.63 0.33 7.26 0.66 11 1 C10.67 1.99 10.34 2.98 10 4 C10.87483915 6.16715557 10.87483915 6.16715557 12 8 C11.21625 7.649375 10.4325 7.29875 9.625 6.9375 C8.75875 6.628125 7.8925 6.31875 7 6 C6.01 6.495 6.01 6.495 5 7 C5.33 5.35 5.66 3.7 6 2 C3.03 1.505 3.03 1.505 0 1 C0 0.67 0 0.34 0 0 Z " fill="#C63221" transform="translate(92,98)"/>
<path d="M0 0 C2 1 2 1 2.6328125 2.84765625 C2.79523438 3.57855469 2.95765625 4.30945313 3.125 5.0625 C3.29257813 5.79597656 3.46015625 6.52945313 3.6328125 7.28515625 C3.75398438 7.85105469 3.87515625 8.41695312 4 9 C3.01 8.67 2.02 8.34 1 8 C-1.14255793 8.38932856 -1.14255793 8.38932856 -3 9 C-2.67 7.35 -2.34 5.7 -2 4 C-1.34 4 -0.68 4 0 4 C0 2.68 0 1.36 0 0 Z " fill="#CB5713" transform="translate(100,82)"/>
<path d="M0 0 C0.99 0.495 0.99 0.495 2 1 C2.6328125 3.06640625 2.6328125 3.06640625 3.125 5.5625 C3.29257813 6.38878906 3.46015625 7.21507813 3.6328125 8.06640625 C3.75398437 8.70449219 3.87515625 9.34257813 4 10 C2.68 10.33 1.36 10.66 0 11 C0 7.37 0 3.74 0 0 Z " fill="#941104" transform="translate(150,84)"/>
<path d="M0 0 C0.33 0 0.66 0 1 0 C1.375 3.1875 1.375 3.1875 1 7 C-0.81188028 9.1403498 -2.65801167 10.38988302 -5 12 C-5.66 11.67 -6.32 11.34 -7 11 C-6.1875 9.0625 -6.1875 9.0625 -5 7 C-4.01 6.67 -3.02 6.34 -2 6 C-2 5.34 -2 4.68 -2 4 C-1.34 4 -0.68 4 0 4 C0 2.68 0 1.36 0 0 Z " fill="#FDE2AA" transform="translate(97,71)"/>
<path d="M0 0 C1.125 3.75 1.125 3.75 0 6 C3.96 6 7.92 6 12 6 C11.01 6.33 10.02 6.66 9 7 C8.26676204 9.01508358 8.26676204 9.01508358 8 11 C8 10.34 8 9.68 8 9 C3.545 8.01 3.545 8.01 -1 7 C-0.67 4.69 -0.34 2.38 0 0 Z " fill="#FBBA2B" transform="translate(98,51)"/>
<path d="M0 0 C0.66 0.66 1.32 1.32 2 2 C1.625 4.625 1.625 4.625 1 7 C-1.31 6.34 -3.62 5.68 -6 5 C-6 4.34 -6 3.68 -6 3 C-4.02 2.67 -2.04 2.34 0 2 C0 1.34 0 0.68 0 0 Z " fill="#C20B03" transform="translate(147,91)"/>
<path d="M0 0 C0.33 0 0.66 0 1 0 C1.25 2.8125 1.25 2.8125 1 6 C-0.8125 7.9375 -0.8125 7.9375 -3 9 C-3.99 8.67 -4.98 8.34 -6 8 C-5.02471263 6.66382648 -4.04466681 5.3311249 -3.0625 4 C-2.24458984 2.88625 -2.24458984 2.88625 -1.41015625 1.75 C-0.94480469 1.1725 -0.47945312 0.595 0 0 Z " fill="#930A04" transform="translate(148,102)"/>
<path d="M0 0 C-0.99 0.33 -1.98 0.66 -3 1 C-2.67 1.99 -2.34 2.98 -2 4 C-3.45742463 4.08096803 -4.91612807 4.13917774 -6.375 4.1875 C-7.18710938 4.22230469 -7.99921875 4.25710937 -8.8359375 4.29296875 C-9.55007812 4.19628906 -10.26421875 4.09960938 -11 4 C-11.66 3.01 -12.32 2.02 -13 1 C-8.62426048 0.40667939 -4.42471556 -0.13827236 0 0 Z " fill="#D2440B" transform="translate(96,94)"/>
<path d="M0 0 C1.32 1.32 2.64 2.64 4 4 C4.66 3.67 5.32 3.34 6 3 C6.33 4.98 6.66 6.96 7 9 C4.50638429 7.79618552 2.31856917 6.54571278 0 5 C-0.1875 2.375 -0.1875 2.375 0 0 Z " fill="#B72509" transform="translate(154,106)"/>
<path d="M0 0 C0.66 0.33 1.32 0.66 2 1 C1.34 4.63 0.68 8.26 0 12 C-1.32 12 -2.64 12 -4 12 C-2.66666667 8 -1.33333333 4 0 0 Z " fill="#CD3208" transform="translate(149,81)"/>
<path d="M0 0 C0.99 0 1.98 0 3 0 C3.33 1.65 3.66 3.3 4 5 C7.3 5 10.6 5 14 5 C14 5.33 14 5.66 14 6 C9.71 6 5.42 6 1 6 C0.67 4.02 0.34 2.04 0 0 Z " fill="#FDAF1B" transform="translate(104,88)"/>
<path d="M0 0 C-1.62170379 1.00533667 -3.24747237 2.00411907 -4.875 3 C-6.23238281 3.8353125 -6.23238281 3.8353125 -7.6171875 4.6875 C-10 6 -10 6 -12 6 C-12 5.01 -12 4.02 -12 3 C-10.68 3 -9.36 3 -8 3 C-8 2.34 -8 1.68 -8 1 C-3.375 -1.125 -3.375 -1.125 0 0 Z " fill="#EEB341" transform="translate(187,212)"/>
<path d="M0 0 C0.9354491 3.42255584 1.15817644 6.44103015 1 10 C0.67 10.33 0.34 10.66 0 11 C-0.23075082 12.34747084 -0.41153063 13.70377565 -0.5625 15.0625 C-0.706875 16.361875 -0.85125 17.66125 -1 19 C-1.33 19 -1.66 19 -2 19 C-2.24991456 12.34949576 -1.73955334 6.43013467 0 0 Z " fill="#FCA305" transform="translate(56,94)"/>
<path d="M0 0 C0.33 0 0.66 0 1 0 C0.67 4.95 0.34 9.9 0 15 C-2 13 -2 13 -2.265625 10.72265625 C-2.26046875 9.84480469 -2.2553125 8.96695313 -2.25 8.0625 C-2.25515625 7.18722656 -2.2603125 6.31195313 -2.265625 5.41015625 C-2 3 -2 3 0 0 Z " fill="#FAE6B3" transform="translate(51,68)"/>
<path d="M0 0 C3 3 3 3 3.375 6.0625 C3.25125 7.031875 3.1275 8.00125 3 9 C2.01 9.66 1.02 10.32 0 11 C0 7.37 0 3.74 0 0 Z " fill="#910D03" transform="translate(111,140)"/>
<path d="M0 0 C3.00617269 3.00617269 2.59585316 5.82381598 3 10 C2.01 10.66 1.02 11.32 0 12 C0 8.04 0 4.08 0 0 Z " fill="#8F0502" transform="translate(160,138)"/>
<path d="M0 0 C0.66 0.33 1.32 0.66 2 1 C1.814375 2.11375 1.62875 3.2275 1.4375 4.375 C0.68319343 7.82568861 0.68319343 7.82568861 2 10 C0.35 10.66 -1.3 11.32 -3 12 C-2.01 8.04 -1.02 4.08 0 0 Z " fill="#C62604" transform="translate(142,102)"/>
<path d="M0 0 C3.58806317 3.38872633 6.45684799 6.76141332 9 11 C9 11.66 9 12.32 9 13 C8.01 13 7.02 13 6 13 C5.566875 11.9275 5.13375 10.855 4.6875 9.75 C3.44552705 6.82249233 1.95643046 4.51541059 0 2 C0 1.34 0 0.68 0 0 Z " fill="#F1E6C8" transform="translate(211,61)"/>
<path d="M0 0 C1.79258558 0.08693141 3.58415144 0.19510504 5.375 0.3125 C6.87160156 0.39951172 6.87160156 0.39951172 8.3984375 0.48828125 C9.25695312 0.65714844 10.11546875 0.82601562 11 1 C11.66 1.99 12.32 2.98 13 4 C8.428721 3.45144652 4.32564205 2.58255197 0 1 C0 0.67 0 0.34 0 0 Z " fill="#F1B446" transform="translate(93,222)"/>
<path d="M0 0 C2.31 0.33 4.62 0.66 7 1 C7 1.66 7 2.32 7 3 C4.36 3.66 1.72 4.32 -1 5 C-1 2 -1 2 0 0 Z " fill="#B60B03" transform="translate(114,147)"/>
<path d="M0 0 C0.99 0.33 1.98 0.66 3 1 C1.50902342 4.7952131 -0.75700849 6.61042731 -4 9 C-4 7.35 -4 5.7 -4 4 C-2.68 4 -1.36 4 0 4 C0 2.68 0 1.36 0 0 Z " fill="#F1B03B" transform="translate(206,190)"/>
<path d="M0 0 C0.66 0 1.32 0 2 0 C2 2.64 2 5.28 2 8 C0.35 7.67 -1.3 7.34 -3 7 C-3 6.34 -3 5.68 -3 5 C-2.01 5 -1.02 5 0 5 C0 3.35 0 1.7 0 0 Z " fill="#C20703" transform="translate(156,143)"/>
<path d="M0 0 C2.97 0 5.94 0 9 0 C6.06171403 2.50298434 3.82097239 3.46930939 0 4 C0 2.68 0 1.36 0 0 Z " fill="#FEC235" transform="translate(77,92)"/>
<path d="M0 0 C0.33 0 0.66 0 1 0 C1 4.29 1 8.58 1 13 C-0.32 13.33 -1.64 13.66 -3 14 C-2.5359375 13.0409375 -2.5359375 13.0409375 -2.0625 12.0625 C-0.68064597 8.07950896 -0.3463457 4.18349151 0 0 Z " fill="#FECF64" transform="translate(103,67)"/>
<path d="M0 0 C3.28788824 3.11016455 5.83735988 6.01618925 8 10 C5.12470182 8.71107323 2.94991702 7.50703617 1 5 C0.3125 2.3125 0.3125 2.3125 0 0 Z " fill="#FCE4AE" transform="translate(53,193)"/>
<path d="M0 0 C0 1.98 0 3.96 0 6 C-1.98 5.34 -3.96 4.68 -6 4 C-6 3.34 -6 2.68 -6 2 C-1.125 0 -1.125 0 0 0 Z " fill="#C81403" transform="translate(99,93)"/>
<path d="M0 0 C1.23556641 0.01740234 1.23556641 0.01740234 2.49609375 0.03515625 C3.32238281 0.04417969 4.14867188 0.05320312 5 0.0625 C5.63808594 0.07410156 6.27617188 0.08570312 6.93359375 0.09765625 C3.64895716 2.28741398 0.726631 3.09572188 -3.06640625 4.09765625 C-3.06640625 0.14491523 -3.06640625 0.14491523 0 0 Z " fill="#BA0905" transform="translate(106.06640625,94.90234375)"/>
<path d="M0 0 C0.66 0.33 1.32 0.66 2 1 C0.76302083 2.46484375 -0.47395833 3.9296875 -1.7109375 5.39453125 C-2.89201099 6.8655046 -3.95358529 8.43037794 -5 10 C-5.33 8.35 -5.66 6.7 -6 5 C-4.02 3.35 -2.04 1.7 0 0 Z " fill="#F29C16" transform="translate(124,151)"/>
<path d="M0 0 C2.50037734 2.17424117 3.43628586 3.73045798 4 7 C2.68 7 1.36 7 0 7 C-0.93423645 3.98968256 -1.04449911 3.13349732 0 0 Z " fill="#FAE6BD" transform="translate(40,173)"/>
<path d="M0 0 C1.65 1.65 3.3 3.3 5 5 C4.67 5.66 4.34 6.32 4 7 C3.34 6.34 2.68 5.68 2 5 C1.01 5.33 0.02 5.66 -1 6 C-1.042721 4.33388095 -1.04063832 2.66617115 -1 1 C-0.67 0.67 -0.34 0.34 0 0 Z " fill="#C01E12" transform="translate(111,155)"/>
<path d="M0 0 C2.00720923 0.28674418 4.0085944 0.61866701 6 1 C6 1.99 6 2.98 6 4 C3.625 4.1875 3.625 4.1875 1 4 C0.34 3.01 -0.32 2.02 -1 1 C-0.67 0.67 -0.34 0.34 0 0 Z " fill="#980604" transform="translate(102,152)"/>
<path d="M0 0 C-1.32 0.33 -2.64 0.66 -4 1 C-4 1.66 -4 2.32 -4 3 C-6.64 3 -9.28 3 -12 3 C-12.33 2.34 -12.66 1.68 -13 1 C-8.61414671 0.29826347 -4.44209357 -0.10834375 0 0 Z " fill="#CF3607" transform="translate(145,93)"/>
<path d="M0 0 C0.99 0.33 1.98 0.66 3 1 C3 1.33 3 1.66 3 2 C6.96 2.33 10.92 2.66 15 3 C15 3.33 15 3.66 15 4 C10.38 4 5.76 4 1 4 C0.67 2.68 0.34 1.36 0 0 Z " fill="#FAA318" transform="translate(153,89)"/>
<path d="M0 0 C0.33 0 0.66 0 1 0 C1.16682272 4.92127034 1.24828052 8.50343896 -1 13 C-1.33 13 -1.66 13 -2 13 C-2.23509196 8.18061476 -1.45184478 4.53701494 0 0 Z " fill="#FBE0A6" transform="translate(100,38)"/>
<path d="M0 0 C-5.75 5 -5.75 5 -8 5 C-8 4.34 -8 3.68 -8 3 C-7.34 3 -6.68 3 -6 3 C-6 2.01 -6 1.02 -6 0 C-2.25 -1.125 -2.25 -1.125 0 0 Z " fill="#EDB344" transform="translate(195,206)"/>
<path d="M0 0 C0.33 0 0.66 0 1 0 C1.75 3.25 1.75 3.25 2 7 C0.0625 9.4375 0.0625 9.4375 -2 11 C-1.34 7.37 -0.68 3.74 0 0 Z " fill="#DB3F08" transform="translate(102,156)"/>
<path d="M0 0 C6.625 -0.25 6.625 -0.25 10 2 C10 2.66 10 3.32 10 4 C8.51882199 3.71872579 7.04006751 3.42466268 5.5625 3.125 C4.73878906 2.96257812 3.91507812 2.80015625 3.06640625 2.6328125 C2.38449219 2.42398438 1.70257813 2.21515625 1 2 C0.67 1.34 0.34 0.68 0 0 Z " fill="#CE2E0A" transform="translate(93,148)"/>
<path d="M0 0 C-3.00440021 2.00293347 -4.70993945 2.49271626 -8.1875 3.125 C-9.08855469 3.29257813 -9.98960937 3.46015625 -10.91796875 3.6328125 C-11.60503906 3.75398437 -12.29210937 3.87515625 -13 4 C-13 3.34 -13 2.68 -13 2 C-11.39935157 1.46845258 -9.79431126 0.95011647 -8.1875 0.4375 C-7.29417969 0.14746094 -6.40085938 -0.14257812 -5.48046875 -0.44140625 C-3 -1 -3 -1 0 0 Z " fill="#B41D0E" transform="translate(177,148)"/>
<path d="M0 0 C2.0625 1.75 2.0625 1.75 4 4 C3.75 6.25 3.75 6.25 3 8 C2.01 7.34 1.02 6.68 0 6 C-0.1875 2.875 -0.1875 2.875 0 0 Z " fill="#C91C06" transform="translate(100,103)"/>
<path d="M0 0 C2.31 0.66 4.62 1.32 7 2 C7.33 3.65 7.66 5.3 8 7 C6.66382648 6.02471263 5.3311249 5.04466681 4 4.0625 C3.2575 3.51722656 2.515 2.97195312 1.75 2.41015625 C1.1725 1.94480469 0.595 1.47945312 0 1 C0 0.67 0 0.34 0 0 Z " fill="#FBE7B2" transform="translate(196,51)"/>
<path d="M0 0 C0.33 0.66 0.66 1.32 1 2 C1.66 2.33 2.32 2.66 3 3 C1.02 4.32 -0.96 5.64 -3 7 C-3.66 6.67 -4.32 6.34 -5 6 C-3.35 4.02 -1.7 2.04 0 0 Z " fill="#9D1904" transform="translate(95,108)"/>
<path d="M0 0 C1.32 0 2.64 0 4 0 C3.67 1.98 3.34 3.96 3 6 C2.67 5.01 2.34 4.02 2 3 C1.01 3 0.02 3 -1 3 C-0.67 2.01 -0.34 1.02 0 0 Z " fill="#FBE8AE" transform="translate(63,95)"/>
<path d="M0 0 C1.15941038 3.47823115 0.70820884 5.45895578 0 9 C-0.66 8.01 -1.32 7.02 -2 6 C-2.99 6.495 -2.99 6.495 -4 7 C-2.92598892 4.08482708 -2.22189824 2.22189824 0 0 Z " fill="#F1BD42" transform="translate(49,72)"/>
<path d="M0 0 C2.56616632 3.84924948 2.55097676 6.4349304 3 11 C2.01 10.67 1.02 10.34 0 10 C0 6.7 0 3.4 0 0 Z " fill="#AA2706" transform="translate(118,158)"/>
<path d="M0 0 C0.33 0.66 0.66 1.32 1 2 C0.34 2 -0.32 2 -1 2 C-1 2.99 -1 3.98 -1 5 C-3.31 5.33 -5.62 5.66 -8 6 C-6.3584951 2.7169902 -3.17097149 1.72962081 0 0 Z " fill="#FBBE4C" transform="translate(99,84)"/>
<path d="M0 0 C1.32 0 2.64 0 4 0 C4.99 2.31 5.98 4.62 7 7 C6.34 7 5.68 7 5 7 C4.67 5.68 4.34 4.36 4 3 C3.01 3 2.02 3 1 3 C0.67 2.01 0.34 1.02 0 0 Z " fill="#F0E1B8" transform="translate(217,74)"/>
</svg>
